<svg xmlns="http://www.w3.org/2000/svg" xmlns:xlink="http://www.w3.org/1999/xlink" viewBox="0 0 474.8 137.8"><defs><style>.cls-1{fill:#646464;}.cls-2{fill:url(#linear-gradient);}.cls-3{fill:url(#linear-gradient-2);}.cls-4{opacity:0.44;isolation:isolate;fill:url(#radial-gradient);}</style><linearGradient id="linear-gradient" x1="536.46" y1="-523.82" x2="645.47" y2="-617.62" gradientTransform="matrix(0.56, 0, 0, -0.57, -304.51, -291.18)" gradientUnits="userSpaceOnUse"><stop offset="0" stop-color="#5a9fd4"/><stop offset="1" stop-color="#306998"/></linearGradient><linearGradient id="linear-gradient-2" x1="687.62" y1="-674.39" x2="648.69" y2="-619.31" gradientTransform="matrix(0.56, 0, 0, -0.57, -304.51, -291.18)" gradientUnits="userSpaceOnUse"><stop offset="0" stop-color="#ffd43b"/><stop offset="1" stop-color="#ffe873"/></linearGradient><radialGradient id="radial-gradient" cx="-3967.98" cy="153.13" r="29.04" gradientTransform="matrix(0, -0.24, -1.05, 0, 217.32, -821.27)" gradientUnits="userSpaceOnUse"><stop offset="0" stop-color="#b8b8b8" stop-opacity="0.5"/><stop offset="1" stop-color="#7f7f7f" stop-opacity="0"/></radialGradient></defs><title>Moto-gold-dsAsset 1</title><g id="Layer_2" data-name="Layer 2"><g id="svg2"><path id="path46" class="cls-1" d="M179,58.67q0-21.84-12.45-22.45a23.28,23.28,0,0,0-9.67,1.59,14.1,14.1,0,0,0-5.08,2.68V75.25q8,5,14.14,4.64Q179,79,179,58.67Zm10.25.6q0,11.1-5.23,18.42a19.25,19.25,0,0,1-16.17,8.53q-7.78.25-16.05-4.87v31.59l-8.91-3.18V39.64A20,20,0,0,1,148.53,35q8-4.63,19.33-4.75l.13.12a17.72,17.72,0,0,1,16,8.53Q189.26,46.83,189.27,59.27Z"/><path id="path48" class="cls-1" d="M243.71,80q0,14.9-3,20.62t-11.41,9.14a43.67,43.67,0,0,1-14.76,2.94l-1.47-5.62a70.83,70.83,0,0,0,11.34-2.19c4.32-1.46,7.28-3.71,8.91-6.71,1.31-2.44,1.95-7.11,1.95-14V81.84A45.87,45.87,0,0,1,216.14,86a17.64,17.64,0,0,1-11.59-4.14,14.12,14.12,0,0,1-5.61-11.47V33.3l8.9-3V67.57q0,6,3.86,9.21a14.61,14.61,0,0,0,10,3.11c4.09-.09,8.47-1.67,13.11-4.76V31.59h8.91Z"/><path id="path50" class="cls-1" d="M278.49,85.74c-1.06.08-2,.12-2.93.12q-7.56,0-11.78-3.6c-2.79-2.41-4.2-5.74-4.2-10V37.19h-6.1v-5.6h6.1V16.71l8.9-3.17V31.59h10v5.6h-10V72q0,5,2.69,7.1c1.54,1.14,4,1.79,7.32,2Z"/><path id="path52" class="cls-1" d="M332.43,85h-8.91V50.62a16.34,16.34,0,0,0-2.44-9,8.92,8.92,0,0,0-7.85-4.27q-6.12,0-15.32,6.46V85H289V2.81L297.91,0V37.44a31,31,0,0,1,18.66-6.22A14.89,14.89,0,0,1,328,36a16.74,16.74,0,0,1,4.39,11.83V85Z"/><path id="path54" class="cls-1" d="M379.78,57.26q0-8.38-3.17-13.87a13.31,13.31,0,0,0-11.71-7q-14.65.84-14.64,21,0,9.23,3.06,15.41,3.92,7.89,11.75,7.76Q379.79,80.37,379.78,57.26Zm9.76.06q0,12-6.1,19.89-6.72,8.88-18.54,8.9t-18.31-8.9q-6-8-6-19.89,0-11.22,6.46-18.91A22.26,22.26,0,0,1,365,30.25a22.64,22.64,0,0,1,18.06,8.16Q389.54,46.11,389.54,57.32Z"/><path id="path56" class="cls-1" d="M440.61,85h-8.9V48.67q0-6-3.6-9.34t-9.58-3.23a21.45,21.45,0,0,0-12.08,4.15V85h-8.91V39.14q7.69-5.6,14.15-7.31a43.34,43.34,0,0,1,10.75-1.58,27.83,27.83,0,0,1,6,.61A17.21,17.21,0,0,1,437,35.37a11.93,11.93,0,0,1,3.66,8.78Z"/><path id="path1948" class="cls-2" d="M54.92,3.14A76.59,76.59,0,0,0,42.11,4.23c-11.35,2-13.41,6.2-13.41,13.94V28.39H55.51v3.4H18.64c-7.79,0-14.62,4.69-16.75,13.6C-.57,55.6-.68,62,1.89,72.64c1.9,7.93,6.46,13.59,14.25,13.59h9.22V74A17,17,0,0,1,42.11,57.32H68.89A13.5,13.5,0,0,0,82.29,43.7V18.17c0-7.27-6.13-12.73-13.4-13.94A83.49,83.49,0,0,0,54.92,3.14Zm-14.5,8.22a5.11,5.11,0,1,1-5,5.12A5.08,5.08,0,0,1,40.42,11.36Z"/><path id="path1950" class="cls-3" d="M85.64,31.79V43.7c0,9.23-7.83,17-16.75,17H42.11A13.68,13.68,0,0,0,28.7,74.32V99.86c0,7.26,6.32,11.54,13.41,13.62a44.79,44.79,0,0,0,26.78,0c6.75-2,13.4-5.89,13.4-13.62V89.64H55.51V86.23H95.7c7.79,0,10.7-5.44,13.41-13.59,2.8-8.4,2.68-16.48,0-27.25-1.93-7.76-5.61-13.6-13.41-13.6ZM70.58,96.45a5.11,5.11,0,1,1-5,5.09A5.07,5.07,0,0,1,70.58,96.45Z"/><path id="text3004" class="cls-1" d="M458,23.65h1.56v-9.8h3.71V12.68h-9v1.17H458v9.8m6.65,0h1.33V14.7l2.9,9h1.49l3-8.92v8.92h1.46v-11h-1.93l-3.29,9.4-2.82-9.4h-2.15v11"/><path id="path1894" class="cls-4" d="M91.75,130.84c0,3.84-16.09,7-35.93,7s-35.93-3.12-35.93-7,16.08-7,35.93-7S91.75,127,91.75,130.84Z"/></g></g></svg>